<?xml version="1.0" encoding="UTF-8"?>
<svg id="Layer_1" data-name="Layer 1" xmlns="http://www.w3.org/2000/svg" viewBox="0 0 250 75">
  <defs>
    <style>
      .cls-1 {
        fill: #1883bf;
      }

      .cls-2 {
        fill: #eb5925;
      }

      .cls-3 {
        fill: #fabb17;
      }
    </style>
  </defs>
  <path class="cls-1" d="m21.47,51.07c-1.25,0-2.54-.1-3.85-.3-1.31-.2-2.53-.54-3.65-1.03-1.12-.49-2.02-1.15-2.71-1.99-.69-.84-1.03-1.9-1.03-3.19,0-1.5.39-2.6,1.17-3.3.78-.7,2.04-1.05,3.78-1.05,1.07,0,2.24.1,3.51.3,1.27.2,2.33.3,3.19.3.98,0,1.7-.15,2.18-.46.47-.3.71-.7.71-1.19,0-.4-.15-.73-.44-.99-.29-.26-.77-.5-1.44-.73-.67-.23-1.6-.48-2.8-.76-2.14-.43-3.87-.99-5.2-1.7-1.33-.7-2.29-1.59-2.89-2.66-.6-1.07-.89-2.35-.89-3.85,0-1.71.33-3.19.99-4.45.66-1.25,1.53-2.32,2.61-3.19,1.08-.87,2.3-1.57,3.65-2.11,1.34-.53,2.71-.92,4.1-1.17,1.39-.24,2.73-.37,4.01-.37,2.81,0,5.06.49,6.74,1.47,1.68.98,2.52,2.38,2.52,4.22,0,1.44-.46,2.61-1.38,3.51-.92.9-2.32,1.35-4.22,1.35-.64,0-1.41-.04-2.29-.11-.89-.08-1.75-.17-2.59-.28-.84-.11-1.58-.16-2.22-.16-1.04,0-1.82.14-2.34.41-.52.27-.78.7-.78,1.28,0,.31.12.6.37.89.24.29.69.58,1.35.87.66.29,1.61.6,2.87.94,2.57.64,4.59,1.41,6.08,2.32,1.48.9,2.54,1.93,3.19,3.09.64,1.16.96,2.49.96,3.99,0,2.02-.56,3.78-1.67,5.3-1.12,1.51-2.67,2.69-4.65,3.53-1.99.84-4.3,1.26-6.92,1.26Z"/>
  <path class="cls-1" d="m37.01,32.32c0-3.18.5-5.47,1.49-6.88.99-1.41,2.32-2.11,3.97-2.11,1.07,0,1.9.31,2.5.92.6.61,1.01,1.44,1.24,2.48.23,1.04.34,2.2.34,3.48,0,.89,0,1.92-.02,3.1-.02,1.18-.04,2.39-.07,3.65-.03,1.25-.08,2.43-.14,3.53h.18c.79-3.45,1.6-6.18,2.43-8.18.83-2,1.67-3.44,2.54-4.31.87-.87,1.7-1.31,2.5-1.31.92,0,1.81.44,2.68,1.31.87.87,1.73,2.28,2.59,4.22.86,1.94,1.71,4.55,2.57,7.82h.18c-.06-1.83-.12-3.77-.18-5.8-.06-2.03-.09-3.89-.09-5.57,0-2.2.42-3.81,1.26-4.84.84-1.02,2.01-1.54,3.51-1.54,1.8,0,3.11.68,3.92,2.04.81,1.36,1.21,3.19,1.21,5.48,0,1.68-.09,3.48-.27,5.39-.18,1.91-.44,3.75-.78,5.53s-.73,3.32-1.19,4.63c-.64,1.96-1.44,3.44-2.38,4.45-.95,1.01-2.16,1.51-3.62,1.51-1.07,0-2.18-.43-3.32-1.28-1.15-.86-2.22-2.32-3.21-4.38-.99-2.06-1.84-4.85-2.54-8.37h-.18c-.64,3.33-1.5,5.97-2.57,7.91-1.07,1.94-2.21,3.32-3.42,4.15s-2.36,1.24-3.46,1.24c-1.53,0-2.82-.56-3.87-1.67s-1.86-2.87-2.41-5.25c-.31-1.19-.56-2.47-.76-3.83-.2-1.36-.35-2.7-.46-4.01-.11-1.31-.16-2.48-.16-3.48Z"/>
  <path class="cls-1" d="m95.15,51.39c-1.56,0-2.6-.41-3.12-1.22-.52-.81-.78-2.1-.78-3.87l.69.23c-1.65,3.33-4.83,5-9.54,5-2.14,0-3.91-.38-5.32-1.15-1.41-.76-2.45-1.77-3.14-3-.69-1.24-1.03-2.61-1.03-4.1,0-2.57.93-4.6,2.8-6.1,1.86-1.5,4.34-2.25,7.43-2.25,1.93,0,3.61.29,5.07.87,1.45.58,2.67,1.39,3.65,2.43l-1.28-.09c-.06-2.57-.57-4.39-1.51-5.48-.95-1.08-2.32-1.63-4.13-1.63-.83,0-1.68.13-2.57.39-.89.26-1.77.53-2.64.8-.87.28-1.75.41-2.64.41-1.1,0-1.96-.31-2.57-.92-.61-.61-.92-1.41-.92-2.38,0-1.34.58-2.55,1.74-3.62,1.16-1.07,2.7-1.92,4.61-2.54,1.91-.63,3.98-.94,6.21-.94,2.84,0,5.31.57,7.4,1.7s3.6,2.86,4.52,5.18c.7,1.74,1.2,3.71,1.49,5.89.29,2.19.44,4.52.44,6.99s-.16,4.39-.48,5.75-.84,2.31-1.56,2.84c-.72.53-1.66.8-2.82.8Zm-9.26-6.28c.7,0,1.42-.11,2.16-.34s1.35-.56,1.86-.99c.5-.43.76-.96.76-1.6,0-.58-.2-1.06-.6-1.44-.4-.38-.93-.66-1.6-.83-.67-.17-1.39-.25-2.15-.25-1.35,0-2.4.26-3.16.78-.76.52-1.15,1.19-1.15,2.02s.35,1.44,1.05,1.93c.7.49,1.65.73,2.84.73Z"/>
  <path class="cls-1" d="m107.35,22.51c1.13,0,2.06.5,2.8,1.51.73,1.01,1.25,2.6,1.56,4.77l-.96.6c.55-2.14,1.57-3.77,3.07-4.91,1.5-1.13,3.27-1.7,5.32-1.7,1.93,0,3.65.49,5.16,1.47,1.51.98,2.7,2.45,3.55,4.42.86,1.97,1.28,4.44,1.28,7.4,0,4.8-.89,8.34-2.66,10.61-1.77,2.28-4.17,3.42-7.2,3.42-2.05,0-3.67-.46-4.86-1.38-1.19-.92-2.02-2.03-2.48-3.35l.55-.28c.24,1.74.45,3.46.62,5.16.17,1.7.25,3.19.25,4.47,0,1.53-.36,2.81-1.08,3.85-.72,1.04-1.86,1.56-3.42,1.56-1.44,0-2.54-.48-3.3-1.44-.76-.96-1.3-2.27-1.6-3.92-.18-1.28-.37-2.92-.55-4.91-.18-1.99-.33-4.13-.44-6.44-.11-2.31-.16-4.58-.16-6.81s.08-4.33.25-6.28c.17-1.96.37-3.55.62-4.77.28-1.04.73-1.81,1.35-2.32s1.4-.76,2.32-.76Zm8.67,7.38c-1.28,0-2.31.63-3.07,1.88-.76,1.25-1.15,2.87-1.15,4.86s.38,3.58,1.15,4.58c.76,1.01,1.76,1.51,2.98,1.51,1.47,0,2.51-.57,3.14-1.7.63-1.13.94-2.61.94-4.45,0-2.29-.4-3.98-1.19-5.07-.8-1.08-1.73-1.63-2.8-1.63Z"/>
  <path class="cls-3" d="m135.41,17.05c1.04,0,1.91.4,2.61,1.19.7.8,1.05,2.31,1.05,4.54,0,1.65-.24,3.21-.71,4.68-.47,1.47-1.08,2.64-1.81,3.53-.73.89-1.5,1.33-2.29,1.33s-1.44-.38-1.95-1.15c-.5-.76-.86-1.77-1.08-3-.21-1.24-.32-2.58-.32-4.01,0-2.48.41-4.28,1.24-5.41.83-1.13,1.91-1.7,3.25-1.7Z"/>
  <path class="cls-3" d="m147.38,22.41c1.38,0,2.33.4,2.87,1.19.53.8.8,1.97.8,3.53,0,.37-.02.76-.07,1.17-.05.41-.11.79-.21,1.12l-.09-.92c.73-1.99,1.85-3.54,3.35-4.65,1.5-1.12,3.09-1.67,4.77-1.67,2.05,0,3.74.57,5.09,1.7,1.34,1.13,2.35,2.72,3.03,4.77.67,2.05,1.01,4.46,1.01,7.24,0,1.5-.06,2.97-.18,4.4-.12,1.44-.29,2.75-.5,3.94s-.49,2.17-.83,2.93c-.46,1.1-1.1,1.93-1.93,2.48-.83.55-1.82.83-2.98.83-1.22,0-2.17-.42-2.84-1.26-.67-.84-1.01-2.01-1.01-3.51,0-.95.05-2.07.16-3.37.11-1.3.21-2.61.3-3.92.09-1.31.14-2.43.14-3.35,0-2.93-.92-4.4-2.75-4.4-1.01,0-1.86.47-2.54,1.4-.69.93-1.14,2.24-1.35,3.92-.09.76-.15,1.71-.18,2.84-.03,1.13-.06,2.25-.09,3.37s-.08,2.06-.14,2.82c-.18,2.11-.68,3.62-1.49,4.52-.81.9-1.92,1.35-3.32,1.35-1.68,0-2.95-.53-3.81-1.58s-1.28-2.83-1.28-5.34c0-1.28.03-2.72.09-4.31.06-1.59.15-3.19.25-4.79.11-1.6.24-3.06.39-4.38.3-2.51.88-4.48,1.72-5.92.84-1.44,2.06-2.15,3.65-2.15Z"/>
  <path class="cls-2" d="m206.94,37.91c.89.61,1.52,1.31,1.9,2.11.38.8.57,1.67.57,2.61,0,1.47-.47,2.87-1.42,4.22-.95,1.35-2.42,2.45-4.4,3.3-1.99.86-4.59,1.28-7.79,1.28-3.67,0-6.7-.66-9.1-1.97-2.4-1.31-4.19-3.16-5.37-5.53s-1.76-5.14-1.76-8.32c0-3.55.79-6.69,2.36-9.42,1.57-2.74,3.79-4.88,6.65-6.42,2.86-1.54,6.21-2.32,10.06-2.32,3.18,0,5.61.56,7.29,1.67,1.68,1.12,2.52,2.7,2.52,4.75,0,1.38-.45,2.45-1.35,3.23-.9.78-2.24,1.17-4.01,1.17-.64,0-1.31-.05-2.02-.14s-1.41-.17-2.13-.23c-.72-.06-1.44-.09-2.18-.09-1.47,0-2.84.25-4.1.76-1.27.5-2.28,1.34-3.03,2.5-.75,1.16-1.12,2.71-1.12,4.63,0,1.74.34,3.16,1.03,4.26.69,1.1,1.63,1.9,2.82,2.41,1.19.5,2.57.76,4.13.76,1.44,0,2.54-.18,3.3-.53.76-.35,1.3-.87,1.6-1.56s.46-1.57.46-2.64c0-.34-.02-.69-.07-1.08-.05-.38-.13-.77-.25-1.17l5.41,1.74Zm-4.08,1.06c-.76.06-1.48.1-2.15.11-.67.02-1.31.02-1.93.02-2.38,0-4.01-.19-4.88-.57-.87-.38-1.31-1.06-1.31-2.04,0-.67.23-1.28.69-1.81.46-.53,1.13-1.03,2.02-1.49.86-.4,1.98-.73,3.37-.99,1.39-.26,2.97-.39,4.75-.39,2.51,0,4.36.28,5.57.85,1.21.57,1.81,1.38,1.81,2.45,0,.89-.34,1.64-1.03,2.25-.69.61-1.83,1.01-3.42,1.19l-3.49.41Z"/>
  <path class="cls-2" d="m225.23,51.07c-2.66,0-4.98-.54-6.97-1.63-1.99-1.08-3.52-2.64-4.61-4.65-1.09-2.02-1.63-4.42-1.63-7.2s.55-5.44,1.65-7.61c1.1-2.17,2.66-3.87,4.68-5.09s4.36-1.83,7.02-1.83c2.87,0,5.36.59,7.45,1.77,2.09,1.18,3.72,2.82,4.88,4.93,1.16,2.11,1.74,4.57,1.74,7.38s-.59,5.35-1.76,7.43c-1.18,2.08-2.83,3.68-4.95,4.81-2.12,1.13-4.62,1.7-7.5,1.7Zm.64-8.62c1.38,0,2.48-.53,3.3-1.6s1.24-2.49,1.24-4.26-.41-3.19-1.24-4.26c-.83-1.07-1.93-1.6-3.3-1.6s-2.52.53-3.35,1.58-1.24,2.48-1.24,4.29.41,3.19,1.24,4.26,1.94,1.6,3.35,1.6Z"/>
</svg>